<?xml version="1.0" encoding="UTF-8"?>
<svg xmlns="http://www.w3.org/2000/svg" xmlns:xlink="http://www.w3.org/1999/xlink" width="81px" height="55px" viewBox="0 0 81 55" version="1.1">
<g id="surface1">
<path style=" stroke:none;fill-rule:nonzero;fill:rgb(35.294118%,10.980392%,73.333333%);fill-opacity:1;" d="M 49.5 25.644531 C 54.664062 28.273438 63.648438 28.808594 70.296875 25.421875 C 75.914062 22.5625 75.914062 17.910156 70.296875 15.054688 L 50.921875 5.183594 C 45.722656 2.539062 36.742188 2.035156 30.125 5.40625 C 25.046875 7.992188 24.558594 12.042969 28.664062 14.910156 L 21.898438 18.355469 C 20.449219 19.089844 21.554688 20.359375 23.609375 20.296875 L 38.160156 19.871094 Z M 61.816406 19.328125 C 62.53125 19.683594 62.816406 20.207031 62.5625 20.699219 C 62.308594 21.191406 61.554688 21.574219 60.589844 21.707031 C 59.625 21.835938 58.59375 21.691406 57.898438 21.328125 C 56.816406 20.773438 56.816406 19.882812 57.898438 19.328125 C 58.980469 18.777344 60.734375 18.777344 61.816406 19.328125 Z M 38.605469 11.5 C 37.878906 11.144531 37.589844 10.621094 37.839844 10.125 C 38.09375 9.628906 38.855469 9.242188 39.824219 9.113281 C 40.796875 8.984375 41.828125 9.136719 42.523438 9.503906 C 43.585938 10.058594 43.574219 10.941406 42.5 11.488281 C 41.425781 12.035156 39.691406 12.039062 38.605469 11.5 Z M 52.171875 14.417969 C 52.886719 14.773438 53.171875 15.296875 52.917969 15.785156 C 52.664062 16.277344 51.90625 16.664062 50.941406 16.792969 C 49.976562 16.921875 48.949219 16.777344 48.25 16.414062 C 47.191406 15.859375 47.203125 14.976562 48.277344 14.429688 C 49.347656 13.882812 51.085938 13.878906 52.171875 14.417969 Z M 59.574219 35.035156 L 40.195312 25.164062 C 34.582031 22.308594 25.445312 22.308594 19.832031 25.167969 C 13.273438 28.507812 14.148438 33.085938 19.398438 35.757812 L 30.734375 41.535156 L 29.898438 48.945312 C 29.777344 49.980469 32.257812 50.554688 33.710938 49.816406 L 40.476562 46.367188 C 46.105469 48.457031 54.0625 48.210938 59.136719 45.625 C 65.683594 42.292969 64.832031 37.714844 59.574219 35.035156 Z M 27.878906 31.480469 C 26.796875 30.929688 26.792969 30.035156 27.878906 29.484375 C 28.960938 28.933594 30.714844 28.933594 31.796875 29.484375 C 32.859375 30.039062 32.847656 30.921875 31.773438 31.46875 C 30.699219 32.015625 28.964844 32.019531 27.878906 31.480469 Z M 37.523438 36.394531 C 36.800781 36.039062 36.507812 35.515625 36.761719 35.019531 C 37.015625 34.523438 37.773438 34.136719 38.746094 34.007812 C 39.71875 33.878906 40.75 34.027344 41.445312 34.398438 C 42.503906 34.953125 42.492188 35.835938 41.421875 36.382812 C 40.347656 36.929688 38.609375 36.933594 37.523438 36.394531 Z M 47.171875 41.308594 C 46.089844 40.757812 46.089844 39.863281 47.171875 39.308594 C 48.253906 38.757812 50.007812 38.757812 51.089844 39.308594 C 52.152344 39.863281 52.140625 40.746094 51.066406 41.292969 C 49.992188 41.839844 48.257812 41.847656 47.171875 41.308594 Z M 47.171875 41.308594 "/>
</g>
</svg>
