<?xml version="1.0" encoding="UTF-8"?>
<svg xmlns="http://www.w3.org/2000/svg" xmlns:xlink="http://www.w3.org/1999/xlink" width="81px" height="55px" viewBox="0 0 81 55" version="1.1">
<g id="surface1">
<path style=" stroke:none;fill-rule:nonzero;fill:rgb(90.196078%,64.705882%,19.607843%);fill-opacity:1;" d="M 1.109375 41.742188 C 1.246094 43.15625 1.390625 44.613281 1.527344 46.121094 L 1.53125 46.152344 L 2.074219 51.109375 C 2.144531 51.773438 2.570312 52.371094 3.222656 52.8125 C 3.875 53.253906 4.753906 53.542969 5.730469 53.59375 L 13.03125 53.960938 L 13.078125 53.964844 C 27.6875 54.582031 38.75 54.972656 48.078125 54.359375 C 58.964844 53.644531 66.65625 51.53125 72.28125 47.714844 C 82.449219 40.808594 82.433594 29.976562 72.238281 23.054688 C 67.65625 19.941406 61.40625 18.039062 54.9375 17.695312 C 54.4375 13.304688 51.628906 9.0625 47.050781 5.949219 C 36.855469 -0.972656 20.902344 -0.984375 10.730469 5.921875 C -1.566406 14.269531 -0.5 25.199219 1.109375 41.742188 Z M 25.824219 22.265625 L 33.285156 27.332031 L 40.730469 22.277344 L 48.195312 27.34375 L 40.746094 32.398438 L 48.210938 37.464844 L 40.765625 42.519531 L 33.300781 37.453125 L 25.855469 42.507812 L 18.394531 37.441406 L 25.839844 32.386719 L 18.378906 27.320312 Z M 25.824219 22.265625 "/>
</g>
</svg>
